<svg xmlns="http://www.w3.org/2000/svg" width="227.135" height="97.594" viewBox="0 0 227.135 97.594"><defs><style>.a{fill:#004593;}</style></defs><g transform="translate(-8 -1)"><g transform="translate(106.531 20.821)"><path class="a" d="M165.321,34.511S129.167,16.38,98.864,19.681v14.83Z" transform="translate(-98.864 -19.279)"/></g><g transform="translate(58.141 20.813)"><path class="a" d="M98.555,19.271V34.5H54.239C54.239,34.512,58.916,23.267,98.555,19.271Z" transform="translate(-54.239 -19.271)"/></g><g transform="translate(8 1)"><path class="a" d="M235.129,47.713a26.929,26.929,0,0,0-.093-2.8,30.171,30.171,0,0,0-1.542-7.8,14.825,14.825,0,0,0-2.964-5.126,9.158,9.158,0,0,0-2.91-2.141,9.866,9.866,0,0,0-3.916-.907c-5-.139-10.513-.491-16.6-1.02-6.061-.579-12.645-1.272-19.457-2.405-3.366-.693-6.906-1.134-9.857-2.569-.7-.416-1.3-.718-2.079-1.222-.764-.479-1.515-.957-2.279-1.436-1.555-1-3.138-2.015-4.72-3.023A110.306,110.306,0,0,0,147.347,6.655,98.853,98.853,0,0,0,122.821,1.4c-2.106-.151-4.211-.227-6.33-.34a29.491,29.491,0,0,0-3.165-.038l-3.151.063-3.245.076-3.031.214-3.017.214-1.5.1-1.556.176a122.582,122.582,0,0,0-23.91,4.66,107.037,107.037,0,0,0-20.759,8.917c-2.99,1.7-5.914,3.363-8.73,4.962-.657.34-1.314.718-1.931,1.02l-.9.4-.443.2-.362.1a4.658,4.658,0,0,0-.644.227l-1.167.189c-.778.126-1.314.176-2.025.252-2.856.239-5.793.327-8.663.529A35.032,35.032,0,0,0,19.8,24.753a18.257,18.257,0,0,0-2,.819,14.2,14.2,0,0,0-1.837,1.146,8.462,8.462,0,0,0-1.542,1.423,7.739,7.739,0,0,0-.684.844c-.134.227-.282.441-.416.667a36.341,36.341,0,0,0-2.682,5.239A48.485,48.485,0,0,0,8.2,42.511a14.9,14.9,0,0,0-.051,4.465l.266,2.051s.362-.894,1.167-2.519a73.6,73.6,0,0,1,3.755-6.826,32.864,32.864,0,0,1,3.245-4.37l.5-.6.4-.327a4.554,4.554,0,0,1,1.019-.705,8.772,8.772,0,0,1,1.22-.542,14.927,14.927,0,0,1,1.448-.365,34.858,34.858,0,0,1,7.2-.365c2.709.088,5.646.34,8.9.29.8-.013,1.824-.05,2.6-.113l1.18-.1.174-.025.094-.025.2-.038.389-.076.791-.176.791-.189.671-.227,1.341-.479c.858-.34,1.623-.693,2.441-1.045,2.923-1.448,5.954-2.96,9.079-4.5a140.984,140.984,0,0,1,19.579-7.8A147.655,147.655,0,0,1,98.682,12.78l1.435-.239,1.5-.176,3-.365,3.017-.353,2.843-.176,2.95-.176a25.665,25.665,0,0,1,2.951-.088c1.971.025,3.943.013,5.913.063a92.435,92.435,0,0,1,23.053,4.068,104.83,104.83,0,0,1,20.678,9.358c1.622.957,3.218,1.889,4.8,2.834.818.479,1.636.945,2.441,1.411.778.466,1.823.957,2.722,1.423.442.2.858.34,1.287.516L177.6,31l.16.063.081.025s.348.126.241.076l.711.164c.938.214,1.877.428,2.8.63,1.837.353,3.621.542,5.4.819,7.067.831,13.718,1.222,19.86,1.524,6.128.252,11.84.353,16.789.252a7.42,7.42,0,0,1,5.511,2.179,13.642,13.642,0,0,1,2.911,4.446A28.979,28.979,0,0,1,234,48.586c.228,1.763.255,2.708.255,2.708Z" transform="translate(-8 -1)"/></g><g transform="translate(23.097 51.294)"><path class="a" d="M59.445,65.123A16.463,16.463,0,0,0,53.9,52.665a18.529,18.529,0,0,0-13.221-5.22,18.7,18.7,0,0,0-13.3,5.22,16.391,16.391,0,0,0-5.466,12.458V88.717a5.317,5.317,0,0,0,1.847,4.176,6.27,6.27,0,0,0,4.506,1.74,6.218,6.218,0,0,0,4.432-1.74,5.566,5.566,0,0,0,1.847-4.176V82.731h6.2a18.468,18.468,0,0,0,13.222-5.15A16.652,16.652,0,0,0,59.445,65.123Zm-12.557,0h-.074a5.457,5.457,0,0,1-1.773,4.106,6.157,6.157,0,0,1-4.358,1.67h-6.2V65.123a5.483,5.483,0,0,1,1.846-4.106,6.265,6.265,0,0,1,4.432-1.74,6.172,6.172,0,0,1,4.284,1.74A5.528,5.528,0,0,1,46.888,65.123Z" transform="translate(-21.922 -47.375)"/><path class="a" d="M96.233,76.029A16.652,16.652,0,0,0,90.768,63.57a19.641,19.641,0,0,0-26.517,0,17.01,17.01,0,0,0,0,24.986,18.642,18.642,0,0,0,13.3,5.15,18.468,18.468,0,0,0,13.222-5.15A16.8,16.8,0,0,0,96.233,76.029Zm-12.557,0A5.566,5.566,0,0,1,81.83,80.2a6.105,6.105,0,0,1-4.284,1.67,5.929,5.929,0,0,1-4.358-1.74,5.275,5.275,0,0,1-1.847-4.106,5.417,5.417,0,0,1,1.773-4.037,6.265,6.265,0,0,1,4.432-1.74,6.156,6.156,0,0,1,4.358,1.67A5.457,5.457,0,0,1,83.677,76.029Z" transform="translate(-18.812 -46.449)"/><path class="a" d="M133.484,76.029a16.654,16.654,0,0,0-5.465-12.458,19.641,19.641,0,0,0-26.517,0,17.01,17.01,0,0,0,0,24.986,19.641,19.641,0,0,0,26.517,0A16.8,16.8,0,0,0,133.484,76.029Zm-12.557,0a5.568,5.568,0,0,1-1.846,4.176,6.107,6.107,0,0,1-4.284,1.67,5.929,5.929,0,0,1-4.358-1.74,5.275,5.275,0,0,1-1.847-4.106,5.416,5.416,0,0,1,1.773-4.037,6.265,6.265,0,0,1,4.432-1.74,6.157,6.157,0,0,1,4.358,1.67A5.455,5.455,0,0,1,120.927,76.029Z" transform="translate(-15.668 -46.449)"/><path class="a" d="M146.183,88.722V53.3a5.8,5.8,0,0,0-1.846-4.176,6.531,6.531,0,0,0-4.432-1.74,6.265,6.265,0,0,0-4.432,1.74,5.52,5.52,0,0,0-1.847,4.176V88.722a5.317,5.317,0,0,0,1.847,4.176,5.812,5.812,0,0,0,4.374,1.689c4.84,0,4.84.692,4.489-1.689A5.568,5.568,0,0,0,146.183,88.722Z" transform="translate(-12.496 -47.381)"/><path class="a" d="M177.5,53.3a5.6,5.6,0,0,0-1.92-4.176,6.531,6.531,0,0,0-4.432-1.74,6.263,6.263,0,0,0-4.432,1.74,5.52,5.52,0,0,0-1.847,4.176,5.317,5.317,0,0,0,1.847,4.176,6.608,6.608,0,0,0,8.937,0A5.569,5.569,0,0,0,177.5,53.3Zm0,35.426V69.513a5.6,5.6,0,0,0-1.92-4.176,6.531,6.531,0,0,0-4.432-1.74,6.263,6.263,0,0,0-4.432,1.74,5.521,5.521,0,0,0-1.847,4.176V88.722a5.317,5.317,0,0,0,1.847,4.176,6.608,6.608,0,0,0,8.937,0A5.569,5.569,0,0,0,177.5,88.722Z" transform="translate(-9.861 -47.381)"/><path class="a" d="M206.092,88.717a5.793,5.793,0,0,0-1.847-4.176,6.528,6.528,0,0,0-4.431-1.74h-1.625a5.929,5.929,0,0,1-4.358-1.74,5.275,5.275,0,0,1-1.847-4.106V71.108h7.83a6.217,6.217,0,0,0,4.431-1.74,5.566,5.566,0,0,0,1.847-4.176,5.794,5.794,0,0,0-1.847-4.176,6.528,6.528,0,0,0-4.431-1.74h-7.757V53.361a5.8,5.8,0,0,0-1.846-4.176,6.608,6.608,0,0,0-8.937,0,5.52,5.52,0,0,0-1.847,4.176V76.955a16.611,16.611,0,0,0,5.539,12.528,18.643,18.643,0,0,0,13.3,5.15h1.552a6.217,6.217,0,0,0,4.431-1.74A5.566,5.566,0,0,0,206.092,88.717Z" transform="translate(-8.632 -47.375)"/><path class="a" d="M136.813,84.219a2.168,2.168,0,0,1,2.169-2.169h21.7a3.8,3.8,0,0,1,3.8,3.8v2.09a3.8,3.8,0,0,1-3.8,3.8h-21.7a2.168,2.168,0,0,1-2.169-2.169Z" transform="translate(-12.228 -44.455)"/></g></g></svg>